Exposto pela namorada através de um vídeo na internet, Bruno tenta refazer sua reputação, mas tudo o que consegue é se meter em uma série de ciladas. Cilada.com é uma comédia sobre amor e traição que mostra o poder da internet em transformar pequenas intimidades e deslizes em fama e constrangimentos globalizados.

Especificações, para os mais entendidos:

Video
Format                                   : MPEG-4 Visual
Codec ID                                 : XVID
Codec ID/Hint                            : XviD
Duration                                 : 1h 37mn
Bit rate                                 : 2 932 Kbps
Width                                    : 1 280 pixels
Height                                   : 720 pixels
Display aspect ratio                     : 16:9
Frame rate                               : 23.976 fps
Scan type                                : Progressive
Compression mode                         : Lossy
Bits/(Pixel*Frame)                       : 0.133
Stream size                              : 1.99 GiB (86%)
Writing library                          : XviD 1.2.1 (UTC 2008-12-04)

Audio
Format                                   : AC-3
Format/Info                              : Audio Coding 3
Duration                                 : 1h 37mn
Bit rate mode                            : Constant
Bit rate                                 : 448 Kbps
Channel(s)                               : 6 channels
Channel positions                        : Front: L C R, Side: L R, LFE
Sampling rate                            : 48.0 KHz
Bit depth                                : 16 bits
Compression mode                         : Lossy
Stream size                              : 311 MiB (13%)

P.S. Não fui eu quem encodei, apenas estou compartilhando o arquivo.